# xmcd
#
# Track frame offsets: 
#        150
#        24178
#        50718
#        79405
#        103050
#        131198
#        140493
#        171095
#        201485
#        218905
#
# Disc length: 3297 seconds
#
# Revision: 5
# Processed by: cddbd v1.5.1PL2 Copyright (c) Steve Scherf et al.
# Submitted via: ExactAudioCopy v0.95b4
#
DISCID=980cdf0a
DTITLE=Various Artist - Antone's 20th Anniversary - Disc 1
DYEAR=1996
DGENRE=Blues
TTITLE0=Jimmy Rogers - Got My Mojo Working
TTITLE1=Buddy Guy - The Things I Used To Do
TTITLE2=Doyle Bramhall - Wee, Wee, Baby
TTITLE3=Pinetop Perkins - Big Fat Mama
TTITLE4=Angela Strehli Band - Big Town Playboy
TTITLE5=Doug Sahm - Crazy, Crazy Baby
TTITLE6=Snooky Pryor - Nine Below Zero
TTITLE7=Lavelle White - Go to the Mirror
TTITLE8=Sue Foley - Truckin' Little Woman
TTITLE9=Teddy Morgan - Jungle Swing
EXTD=YEAR: 1996
EXTT0=Rogers, Jimmy
EXTT1=Guy, Buddy
EXTT2=Bramhall, Doyle
EXTT3=Pinetop Perkins
EXTT4=Strehli, Angela Band
EXTT5=Sahm, Doug
EXTT6=Pryor, Snooky
EXTT7=White, Lavelle
EXTT8=Foley, Sue
EXTT9=Morgan, Teddy
PLAYORDER=
